USFL
nRows=177
nColumns=2
inDegrees=yes
endheader
time	med_gas_r	
2.93731	 32.322370	
2.99981	 32.337631	
3.0623	 32.340255	
3.1248	 32.347796	
3.1873	 32.355417	
3.24979	 32.377915	
3.31229	 32.386120	
3.37478	 32.376215	
3.43728	 32.387043	
3.49978	 32.396872	
3.56227	 32.388211	
3.62477	 32.367871	
3.68726	 32.381716	
3.74976	 32.362484	
3.81226	 32.373545	
3.87475	 32.342294	
3.93725	 32.369475	
3.99974	 32.297181	
4.06224	 32.192754	
4.12474	 32.055674	
4.18723	 31.800591	
4.24973	 31.547833	
4.31222	 31.375226	
4.37472	 31.174414	
4.43722	 31.197644	
4.49971	 31.212137	
4.56221	 31.096269	
4.6247	 31.028544	
4.6872	 30.976150	
4.7497	 30.864763	
4.81219	 30.825226	
4.87469	 30.840112	
4.93718	 30.825199	
4.99968	 30.821776	
5.06218	 30.761483	
5.12467	 30.624277	
5.18717	 30.658512	
5.24966	 30.624212	
5.31216	 30.593038	
5.37466	 30.521655	
5.43715	 30.503298	
5.49965	 30.417611	
5.56214	 30.317067	
5.62464	 30.308008	
5.68714	 30.160208	
5.74963	 30.064040	
5.81213	 30.071810	
5.87462	 30.025580	
5.93712	 30.035867	
5.99962	 30.016244	
6.06211	 29.967454	
6.12461	 29.931360	
6.1871	 29.961820	
6.2496	 29.931531	
6.3121	 29.929662	
6.37459	 29.938857	
6.43709	 29.943196	
6.49958	 29.963965	
6.56208	 29.960639	
6.62458	 29.995688	
6.68707	 29.995314	
6.74957	 29.987909	
6.81206	 29.976158	
6.87456	 29.941335	
6.93706	 29.972086	
6.99955	 29.997792	
7.06205	 29.956111	
7.12454	 30.040748	
7.18704	 30.139377	
7.24954	 30.165799	
7.31203	 30.195212	
7.37453	 30.216304	
7.43702	 30.222450	
7.49952	 30.245221	
7.56202	 29.960595	
7.62451	 29.995225	
7.68701	 29.987574	
7.7495	 29.946623	
7.812	 29.960193	
7.8745	 29.957388	
7.93699	 29.951874	
7.99949	 29.950355	
8.06198	 29.935179	
8.12448	 30.002366	
8.18698	 30.017691	
8.24947	 30.060776	
8.31197	 30.075552	
8.37446	 30.099835	
8.43696	 30.127507	
8.49946	 30.150863	
8.56195	 30.153054	
8.62445	 30.157041	
8.68694	 30.211296	
8.74944	 30.278929	
8.81194	 29.677768	
8.87443	 29.752654	
8.93693	 29.811659	
8.99942	 29.840127	
9.06192	 29.906457	
9.12442	 29.996449	
9.18691	 30.035032	
9.24941	 30.014845	
9.3119	 30.035984	
9.3744	 29.926302	
9.4369	 29.989001	
9.49939	 30.068415	
9.56189	 30.036734	
9.62438	 30.071699	
9.68688	 30.052306	
9.74938	 30.085320	
9.81187	 30.109107	
9.87437	 30.147317	
9.93686	 29.903379	
9.99936	 30.039810	
10.0619	 30.128966	
10.1244	 29.933059	
10.1868	 30.044831	
10.2493	 29.985748	
10.3118	 30.069237	
10.3743	 30.057741	
10.4368	 30.041318	
10.4993	 30.123440	
10.5618	 30.110283	
10.6243	 30.073874	
10.6868	 30.055777	
10.7493	 29.991075	
10.8118	 30.000632	
10.8743	 30.002692	
10.9368	 30.001662	
10.9993	 30.040872	
11.0618	 30.021701	
11.1243	 30.007114	
11.1868	 30.032813	
11.2493	 30.012184	
11.3118	 29.987399	
11.3743	 30.005452	
11.4368	 29.940149	
11.4993	 29.908836	
11.5618	 29.905456	
11.6243	 29.888831	
11.6868	 29.883907	
11.7492	 29.856370	
11.8117	 29.825226	
11.8742	 29.826782	
11.9367	 29.810176	
11.9992	 29.800047	
12.0617	 29.794473	
12.1242	 29.794871	
12.1867	 29.759024	
12.2492	 29.767678	
12.3117	 29.738635	
12.3742	 29.731335	
12.4367	 29.694724	
12.4992	 29.665828	
12.5617	 29.647821	
12.6242	 29.638689	
12.6867	 29.622059	
12.7492	 29.668496	
12.8117	 29.688218	
12.8742	 29.829017	
12.9367	 29.891855	
12.9992	 29.935912	
13.0617	 29.907733	
13.1242	 29.884604	
13.1867	 29.832589	
13.2492	 29.774411	
13.3116	 29.849249	
13.3741	 29.859950	
13.4366	 29.837395	
13.4991	 29.824915	
13.5616	 29.764663	
13.6241	 29.709875	
13.6866	 29.638635	
13.7491	 29.517827	
13.8116	 29.377863	
13.8741	 29.481769	
13.9366	 29.454216	
